<svg id="Layer_1" data-name="Layer 1" xmlns="http://www.w3.org/2000/svg" viewBox="490 970 2170 1210"><defs><style>.cls-1{fill:#fff;}</style></defs><path class="cls-1" d="M2229.86,2143l6.34,12.7s-7.31,6-21.53,6c-18.48,0-35.44-15.13-35.44-33.87s16.91-34,35.44-34c14.22,0,21.53,6,21.53,6l-6.34,12.69a22.65,22.65,0,0,0-12.85-4.06c-15,0-21.63,10.51-21.63,19.25S2202,2147,2217,2147A22.65,22.65,0,0,0,2229.86,2143Z"/><path class="cls-1" d="M2268.83,2093.8c18.18,0,33,14.83,33,33.93s-14.17,34-33,34c-19.34,0-33-14.88-33-34S2250.81,2093.8,2268.83,2093.8Zm0,53.43c11.94,0,16.81-9.75,16.81-19.5s-5.23-19.55-16.81-19.55S2252,2118,2252,2127.73,2256.65,2147.23,2268.83,2147.23Z"/><path class="cls-1" d="M2366.59,2160.48h-16l-4.87-13.1h-24.88l-4.88,13.1h-16l26.41-65.46h13.81Zm-33.26-45.19h-.1l-7.32,19h14.73Z"/><path class="cls-1" d="M2414.15,2143l6.35,12.7s-7.32,6-21.54,6c-18.48,0-35.44-15.13-35.44-33.87s16.91-34,35.44-34c14.22,0,21.54,6,21.54,6l-6.35,12.69a22.65,22.65,0,0,0-12.85-4.06c-15,0-21.63,10.51-21.63,19.25s6.65,19.29,21.63,19.29A22.65,22.65,0,0,0,2414.15,2143Z"/><path class="cls-1" d="M2437.31,2160.48h-14.88V2095h14.88v26.11h21.12V2095h14.88v65.46h-14.88v-26.3h-21.12Z"/><path class="cls-1" d="M2495.25,2160.48h-14.83V2095h14.83Z"/><path class="cls-1" d="M2516.78,2160.48H2501.9V2095h14.88l26,40.63h.16V2095h14.87v65.46H2543l-26.06-40.62h-.15Z"/><path class="cls-1" d="M2621.57,2138c-3.55,16.56-17.42,23.72-30.21,23.72-17.68,0-31.84-15.18-31.84-33.92s13.45-34,31.84-34c11.47,0,19.6,4.27,25.29,11.18l-9.81,10.76c-3.8-6.09-8.78-8.38-14.57-8.38-9.19,0-16.71,9-16.71,20.42,0,11.12,7.52,20.21,16.71,20.21,7.11,0,14.22-4.62,14.22-12.65h-15.13v-11.47h30.21Z"/><path class="cls-1" d="M695.22,984.35c102.09,0,179,52.06,179,161.07,0,107.78-76.88,168.79-179,168.79H623.63v194.42H504.05V984.35ZM657,1218.63c46.77,0,91.51-15.86,91.51-69.15,0-53.68-44.74-70-91.51-70H623.63v139.1Z"/><path class="cls-1" d="M1031.39,1168.59c43.93,0,80.53,14.65,107,40.68v-30.91h112.26v325.79H1139.18v-36.6h-.82a145.81,145.81,0,0,1-107,46.36c-95.58,0-162.29-76.87-162.29-172.45S935.81,1168.59,1031.39,1168.59Zm33.76,249.33c43.93,0,75.65-31.72,75.65-76.46,0-45.15-34.16-76.88-75.65-76.88-42.71,0-76.47,31.73-76.47,76.88C988.68,1386.2,1019.59,1417.92,1065.15,1417.92Z"/><path class="cls-1" d="M1389.91,1341.05c0,45.15,34.57,80.94,77.28,80.94,33.35,0,54.91-15.45,54.91-15.45l37.42,77.68s-36.2,29.69-108.6,29.69c-94,0-181-76.46-181-172.05,0-96,86.63-173.27,181-173.27,72.4,0,108.6,30.51,108.6,30.51L1522.1,1276s-21.56-15.45-54.91-15.45C1424.48,1260.52,1389.91,1296.31,1389.91,1341.05Z"/><path class="cls-1" d="M1667.06,1356.91c0,50.44,41.89,67.52,70.36,67.52,36.2,0,51.66-7.32,79.32-36.6l81.34,40.67c-36.6,61.42-96.8,85.41-169.2,85.41-98.43,0-179-78.09-179-172.45,0-95.59,80.53-172.87,179-172.87,99.24,0,174.9,58.57,174.9,172.87,0,4.47,0,11.39-.41,15.45Zm126.9-62.23c-4.88-34.57-28.47-52.87-61.42-52.87-38.64,0-60.6,22.77-62.64,52.87Z"/><path class="cls-1" d="M1828.12,1517c145.61,0,264,118.76,264,271.7s-113.48,272.11-264,272.11c-155,0-264.38-119.18-264.38-272.11S1683.73,1517,1828.12,1517Zm0,427.89c95.58,0,134.63-78.1,134.63-156.19s-41.89-156.6-134.63-156.6c-91.92,0-135,78.5-135,156.6S1730.5,1944.88,1828.12,1944.88Z"/><path class="cls-1" d="M2108.36,1722h112.26v34.17h1.62c25.22-25.22,57.76-43.52,93.55-43.52,60.2,0,142.77,29.69,142.77,120.8v214.35H2346.3V1864c0-32.54-22.37-64.26-58.57-64.26-33.35,0-67.11,31.72-67.11,64.26v183.85H2108.36Z"/><circle class="cls-1" cx="2569.64" cy="1986.13" r="72.36"/></svg>